<svg xmlns="http://www.w3.org/2000/svg"  viewBox="0 0 100 100" width="100px" height="100px"><polygon fill="#656566" points="27.13,20.018 12.461,65.583 27.056,80 45.031,80 48.063,69.366 49.19,71 54.548,71 60.824,80 78.856,79.995 87.539,35.3 78.118,20 60.439,20.02 58.834,28 53.642,28.005 52.713,31.507 44.289,20"/><polygon fill="#a4a29a" points="48.209,55.471 57.766,70.702 49.553,71 38.856,55.475"/><polygon fill="#cdcbbd" points="35.971,46.667 41.372,46.351 38.856,55.475 48.209,55.471 50.625,46.501 55.812,46.507 51.294,65.438 69.01,65.438 78.118,20 60.439,20.02 58.834,28 53.553,28.544 51.639,38.5 42.753,38.5 45.041,30.518 41.314,30.515 44.289,20 27.13,20.019 12.707,65.625 30.749,65.738"/><polygon fill="#a4a29a" points="69.01,65.438 78.314,79.995 60.824,80 51.294,65.438"/><polygon fill="#a4a29a" points="31.356,65.959 44.289,79.25 27.378,79.053 12.707,65.985"/><line x1="48.209" x2="52.244" y1="55.496" y2="61.894" fill="#020303"/><path fill="#1f212b" d="M88.391,34.775l-9.421-15.3C78.788,19.18,78.466,19,78.118,19h-0.001l-17.679,0.02	c-0.476,0.001-0.886,0.336-0.979,0.803l-1.444,7.179l-4.374,0.004c-0.453,0-0.85,0.306-0.966,0.744l-0.392,1.478l-7.188-9.817	C44.907,19.152,44.607,19,44.289,19h-0.001l-17.159,0.019c-0.434,0-0.818,0.28-0.951,0.693L11.509,65.276	c-0.115,0.359-0.019,0.753,0.249,1.019l14.595,14.416C26.54,80.896,26.793,81,27.056,81H45.03c0.446,0,0.839-0.296,0.962-0.726	l2.454-8.605C48.634,71.878,48.904,72,49.189,72h4.837l5.978,8.572C60.191,80.84,60.497,81,60.824,81l18.032-0.005	c0.479,0,0.891-0.34,0.981-0.81l8.683-44.695C88.568,35.244,88.522,34.989,88.391,34.775z M61.259,21.019l15.991-0.017L74.1,37	h-8.317l1.986-8.34c0.035-0.149,0.001-0.306-0.094-0.426s-0.239-0.19-0.393-0.19h-7.437L61.259,21.019z M54.421,29.044h12.229	L64.755,37H52.513L54.421,29.044z M44.319,21.734l7.588,10.364c0.161,0.219,0.399,0.354,0.66,0.392L51.245,38h-7.829l2.105-7.344	c0.043-0.15,0.014-0.313-0.081-0.438s-0.242-0.199-0.399-0.199l-3.065-0.003L44.319,21.734z M27.858,21.018l15.628-0.016	l-2.55,9.014l-15.97-0.014L27.858,21.018z M24.645,31.001l19.733,0.017l-2.105,7.345c-0.043,0.15-0.014,0.313,0.081,0.438	C42.448,38.927,42.596,39,42.753,39h8.887c0.231,0,0.433-0.158,0.486-0.384L52.274,38h21.629l-5.304,26.938H52.127l4.407-18.313	c0.035-0.149,0.001-0.306-0.094-0.427c-0.095-0.12-0.239-0.19-0.392-0.19c0,0-5.423-0.008-5.424-0.008	c-0.227,0-0.424,0.151-0.482,0.37l-2.317,8.626L39.515,55l2.325-8.381c0.042-0.15,0.011-0.313-0.084-0.437s-0.241-0.197-0.398-0.197	c0,0-5.388,0.015-5.414,0.02c-0.198,0.011-0.4,0.163-0.454,0.358c0,0-2.43,8.611-2.43,8.61h-8.895l1.545-5.271	c0.045-0.151,0.016-0.314-0.079-0.44s-0.243-0.2-0.4-0.2h-6.4L24.645,31.001z M52.108,60.741l-3.36-5.327l2.26-8.413l4.405,0.006	L52.108,60.741z M32.778,55.974l-1.155,4.092h-8.951l1.2-4.092H32.778z M18.508,50.063h6.054l-3.038,10.362	c-0.045,0.151-0.015,0.314,0.079,0.44c0.095,0.126,0.243,0.2,0.4,0.2h9.337l-1.146,4.06H13.659L18.508,50.063z M31.782,71h3.585	c0.017,0,0.032-0.008,0.048-0.01L43.338,79H27.466L14.433,66.125h16.141c0.008,0,0.014-0.007,0.022-0.007L34.436,70h-2.654	c-0.276,0-0.5,0.224-0.5,0.5S31.506,71,31.782,71z M47.101,69.092l-2.72,9.54L31.188,65.293l5.162-18.294l4.351-0.012	c0,0-2.325,8.379-2.326,8.401c-0.031,0.136-0.005,0.287,0.086,0.416l9.049,12.741C47.317,68.675,47.167,68.861,47.101,69.092z M49.715,70l-5.63-8h2.697c0.276,0,0.5-0.224,0.5-0.5s-0.224-0.5-0.5-0.5h-3.407l-3.551-5l8.11-0.003l3.848,6.101	c0,0-0.776,3.223-0.776,3.231c-0.023,0.124-0.003,0.274,0.067,0.383L53.868,70H49.715z M61.346,79l-8.93-13.063h16.321l5.802,9.079	h-3.697c-0.276,0-0.5,0.224-0.5,0.5s0.224,0.5,0.5,0.5h4.336l1.904,2.979L61.346,79z M78.087,78.713l-8.548-13.376l8.559-43.463	l8.386,13.618L78.087,78.713z"/></svg>